G75*
%MOIN*%
%OFA0B0*%
%FSLAX25Y25*%
%IPPOS*%
%LPD*%
%AMOC8*
5,1,8,0,0,1.08239X$1,22.5*
%
%ADD10C,0.00300*%
%ADD11C,0.00600*%
%ADD12C,0.00700*%
%ADD13C,0.00500*%
%ADD14R,0.73000X0.03000*%
%ADD15R,0.03200X0.28500*%
%ADD16R,0.03200X0.18500*%
D10*
X0044250Y0013234D02*
X0044734Y0012750D01*
X0045701Y0012750D01*
X0046185Y0013234D01*
X0046185Y0014201D01*
X0045217Y0014201D01*
X0044250Y0013234D02*
X0044250Y0015169D01*
X0044734Y0015652D01*
X0045701Y0015652D01*
X0046185Y0015169D01*
X0047197Y0015652D02*
X0049131Y0012750D01*
X0049131Y0015652D01*
X0050143Y0015652D02*
X0051594Y0015652D01*
X0052078Y0015169D01*
X0052078Y0013234D01*
X0051594Y0012750D01*
X0050143Y0012750D01*
X0050143Y0015652D01*
X0047197Y0015652D02*
X0047197Y0012750D01*
X0056750Y0012750D02*
X0058201Y0012750D01*
X0058685Y0013234D01*
X0058685Y0015169D01*
X0058201Y0015652D01*
X0056750Y0015652D01*
X0056750Y0012750D01*
X0059697Y0015652D02*
X0061631Y0015652D01*
X0060664Y0015652D02*
X0060664Y0012750D01*
X0062643Y0012750D02*
X0062643Y0015652D01*
X0064094Y0015652D01*
X0064578Y0015169D01*
X0064578Y0014201D01*
X0064094Y0013717D01*
X0062643Y0013717D01*
X0063611Y0013717D02*
X0064578Y0012750D01*
X0069250Y0012750D02*
X0069250Y0015652D01*
X0070701Y0015652D01*
X0071185Y0015169D01*
X0071185Y0014201D01*
X0070701Y0013717D01*
X0069250Y0013717D01*
X0070217Y0013717D02*
X0071185Y0012750D01*
X0072197Y0012750D02*
X0074131Y0015652D01*
X0072197Y0015652D02*
X0074131Y0012750D01*
X0079250Y0015652D02*
X0081185Y0015652D01*
X0080217Y0015652D02*
X0080217Y0012750D01*
X0082197Y0012750D02*
X0084131Y0015652D01*
X0082197Y0015652D02*
X0084131Y0012750D01*
X0089250Y0014201D02*
X0091185Y0014201D01*
X0092197Y0014201D02*
X0092197Y0015652D01*
X0094131Y0015652D01*
X0095143Y0015652D02*
X0095143Y0013717D01*
X0096111Y0012750D01*
X0097078Y0013717D01*
X0097078Y0015652D01*
X0094131Y0014201D02*
X0094131Y0013234D01*
X0093648Y0012750D01*
X0092680Y0012750D01*
X0092197Y0013234D01*
X0092197Y0014201D02*
X0093164Y0014685D01*
X0093648Y0014685D01*
X0094131Y0014201D01*
X0090217Y0015169D02*
X0090217Y0013234D01*
X0098922Y0030313D02*
X0098305Y0030930D01*
X0098305Y0033399D01*
X0098922Y0034016D01*
X0100157Y0034016D01*
X0100774Y0033399D01*
X0101988Y0033399D02*
X0102605Y0034016D01*
X0103840Y0034016D01*
X0104457Y0033399D01*
X0104457Y0032782D01*
X0101988Y0030313D01*
X0104457Y0030313D01*
X0100774Y0030930D02*
X0100157Y0030313D01*
X0098922Y0030313D01*
X0108305Y0030930D02*
X0108922Y0030313D01*
X0110157Y0030313D01*
X0110774Y0030930D01*
X0111988Y0030930D02*
X0112605Y0030313D01*
X0113840Y0030313D01*
X0114457Y0030930D01*
X0114457Y0032165D01*
X0113840Y0032782D01*
X0113223Y0032782D01*
X0111988Y0032165D01*
X0111988Y0034016D01*
X0114457Y0034016D01*
X0110774Y0033399D02*
X0110157Y0034016D01*
X0108922Y0034016D01*
X0108305Y0033399D01*
X0108305Y0030930D01*
X0108840Y0067813D02*
X0108840Y0071516D01*
X0106988Y0069665D01*
X0109457Y0069665D01*
X0105774Y0070899D02*
X0105157Y0071516D01*
X0103922Y0071516D01*
X0103305Y0070899D01*
X0103305Y0068430D01*
X0103922Y0067813D01*
X0105157Y0067813D01*
X0105774Y0068430D01*
X0099457Y0068430D02*
X0098840Y0067813D01*
X0097605Y0067813D01*
X0096988Y0068430D01*
X0095774Y0068430D02*
X0095157Y0067813D01*
X0093922Y0067813D01*
X0093305Y0068430D01*
X0093305Y0070899D01*
X0093922Y0071516D01*
X0095157Y0071516D01*
X0095774Y0070899D01*
X0096988Y0070899D02*
X0097605Y0071516D01*
X0098840Y0071516D01*
X0099457Y0070899D01*
X0099457Y0070282D01*
X0098840Y0069665D01*
X0099457Y0069047D01*
X0099457Y0068430D01*
X0098840Y0069665D02*
X0098223Y0069665D01*
X0052857Y0067336D02*
X0052857Y0064867D01*
X0052240Y0064250D01*
X0051006Y0064250D01*
X0050389Y0064867D01*
X0052857Y0067336D01*
X0052240Y0067953D01*
X0051006Y0067953D01*
X0050389Y0067336D01*
X0050389Y0064867D01*
X0049174Y0064867D02*
X0048557Y0064250D01*
X0047323Y0064250D01*
X0046705Y0064867D01*
X0046705Y0067336D01*
X0047323Y0067953D01*
X0048557Y0067953D01*
X0049174Y0067336D01*
X0045484Y0067953D02*
X0044250Y0067953D01*
X0044867Y0067953D02*
X0044867Y0064250D01*
X0044250Y0064250D02*
X0045484Y0064250D01*
X0045157Y0056516D02*
X0043922Y0056516D01*
X0043305Y0055899D01*
X0043305Y0053430D01*
X0043922Y0052813D01*
X0045157Y0052813D01*
X0045774Y0053430D01*
X0046988Y0052813D02*
X0049457Y0052813D01*
X0048223Y0052813D02*
X0048223Y0056516D01*
X0046988Y0055282D01*
X0045774Y0055899D02*
X0045157Y0056516D01*
D11*
X0032100Y0076600D02*
X0034100Y0078600D01*
X0034100Y0119100D01*
X0035100Y0119100D01*
X0108100Y0119100D01*
X0109100Y0119100D01*
X0132600Y0119100D01*
X0132600Y0078600D01*
X0130600Y0076600D01*
X0111100Y0076600D01*
X0109100Y0078600D01*
X0109100Y0119100D01*
X0108100Y0119100D02*
X0108100Y0116100D01*
X0035100Y0116100D01*
X0035100Y0119100D01*
X0034100Y0119100D02*
X0010600Y0119100D01*
X0010600Y0079100D01*
X0013100Y0076600D01*
X0032100Y0076600D01*
X0015800Y0089100D02*
X0015802Y0089261D01*
X0015808Y0089421D01*
X0015818Y0089582D01*
X0015832Y0089742D01*
X0015850Y0089902D01*
X0015871Y0090061D01*
X0015897Y0090220D01*
X0015927Y0090378D01*
X0015960Y0090535D01*
X0015998Y0090692D01*
X0016039Y0090847D01*
X0016084Y0091001D01*
X0016133Y0091154D01*
X0016186Y0091306D01*
X0016242Y0091457D01*
X0016303Y0091606D01*
X0016366Y0091754D01*
X0016434Y0091900D01*
X0016505Y0092044D01*
X0016579Y0092186D01*
X0016657Y0092327D01*
X0016739Y0092465D01*
X0016824Y0092602D01*
X0016912Y0092736D01*
X0017004Y0092868D01*
X0017099Y0092998D01*
X0017197Y0093126D01*
X0017298Y0093251D01*
X0017402Y0093373D01*
X0017509Y0093493D01*
X0017619Y0093610D01*
X0017732Y0093725D01*
X0017848Y0093836D01*
X0017967Y0093945D01*
X0018088Y0094050D01*
X0018212Y0094153D01*
X0018338Y0094253D01*
X0018466Y0094349D01*
X0018597Y0094442D01*
X0018731Y0094532D01*
X0018866Y0094619D01*
X0019004Y0094702D01*
X0019143Y0094782D01*
X0019285Y0094858D01*
X0019428Y0094931D01*
X0019573Y0095000D01*
X0019720Y0095066D01*
X0019868Y0095128D01*
X0020018Y0095186D01*
X0020169Y0095241D01*
X0020322Y0095292D01*
X0020476Y0095339D01*
X0020631Y0095382D01*
X0020787Y0095421D01*
X0020943Y0095457D01*
X0021101Y0095488D01*
X0021259Y0095516D01*
X0021418Y0095540D01*
X0021578Y0095560D01*
X0021738Y0095576D01*
X0021898Y0095588D01*
X0022059Y0095596D01*
X0022220Y0095600D01*
X0022380Y0095600D01*
X0022541Y0095596D01*
X0022702Y0095588D01*
X0022862Y0095576D01*
X0023022Y0095560D01*
X0023182Y0095540D01*
X0023341Y0095516D01*
X0023499Y0095488D01*
X0023657Y0095457D01*
X0023813Y0095421D01*
X0023969Y0095382D01*
X0024124Y0095339D01*
X0024278Y0095292D01*
X0024431Y0095241D01*
X0024582Y0095186D01*
X0024732Y0095128D01*
X0024880Y0095066D01*
X0025027Y0095000D01*
X0025172Y0094931D01*
X0025315Y0094858D01*
X0025457Y0094782D01*
X0025596Y0094702D01*
X0025734Y0094619D01*
X0025869Y0094532D01*
X0026003Y0094442D01*
X0026134Y0094349D01*
X0026262Y0094253D01*
X0026388Y0094153D01*
X0026512Y0094050D01*
X0026633Y0093945D01*
X0026752Y0093836D01*
X0026868Y0093725D01*
X0026981Y0093610D01*
X0027091Y0093493D01*
X0027198Y0093373D01*
X0027302Y0093251D01*
X0027403Y0093126D01*
X0027501Y0092998D01*
X0027596Y0092868D01*
X0027688Y0092736D01*
X0027776Y0092602D01*
X0027861Y0092465D01*
X0027943Y0092327D01*
X0028021Y0092186D01*
X0028095Y0092044D01*
X0028166Y0091900D01*
X0028234Y0091754D01*
X0028297Y0091606D01*
X0028358Y0091457D01*
X0028414Y0091306D01*
X0028467Y0091154D01*
X0028516Y0091001D01*
X0028561Y0090847D01*
X0028602Y0090692D01*
X0028640Y0090535D01*
X0028673Y0090378D01*
X0028703Y0090220D01*
X0028729Y0090061D01*
X0028750Y0089902D01*
X0028768Y0089742D01*
X0028782Y0089582D01*
X0028792Y0089421D01*
X0028798Y0089261D01*
X0028800Y0089100D01*
X0028798Y0088939D01*
X0028792Y0088779D01*
X0028782Y0088618D01*
X0028768Y0088458D01*
X0028750Y0088298D01*
X0028729Y0088139D01*
X0028703Y0087980D01*
X0028673Y0087822D01*
X0028640Y0087665D01*
X0028602Y0087508D01*
X0028561Y0087353D01*
X0028516Y0087199D01*
X0028467Y0087046D01*
X0028414Y0086894D01*
X0028358Y0086743D01*
X0028297Y0086594D01*
X0028234Y0086446D01*
X0028166Y0086300D01*
X0028095Y0086156D01*
X0028021Y0086014D01*
X0027943Y0085873D01*
X0027861Y0085735D01*
X0027776Y0085598D01*
X0027688Y0085464D01*
X0027596Y0085332D01*
X0027501Y0085202D01*
X0027403Y0085074D01*
X0027302Y0084949D01*
X0027198Y0084827D01*
X0027091Y0084707D01*
X0026981Y0084590D01*
X0026868Y0084475D01*
X0026752Y0084364D01*
X0026633Y0084255D01*
X0026512Y0084150D01*
X0026388Y0084047D01*
X0026262Y0083947D01*
X0026134Y0083851D01*
X0026003Y0083758D01*
X0025869Y0083668D01*
X0025734Y0083581D01*
X0025596Y0083498D01*
X0025457Y0083418D01*
X0025315Y0083342D01*
X0025172Y0083269D01*
X0025027Y0083200D01*
X0024880Y0083134D01*
X0024732Y0083072D01*
X0024582Y0083014D01*
X0024431Y0082959D01*
X0024278Y0082908D01*
X0024124Y0082861D01*
X0023969Y0082818D01*
X0023813Y0082779D01*
X0023657Y0082743D01*
X0023499Y0082712D01*
X0023341Y0082684D01*
X0023182Y0082660D01*
X0023022Y0082640D01*
X0022862Y0082624D01*
X0022702Y0082612D01*
X0022541Y0082604D01*
X0022380Y0082600D01*
X0022220Y0082600D01*
X0022059Y0082604D01*
X0021898Y0082612D01*
X0021738Y0082624D01*
X0021578Y0082640D01*
X0021418Y0082660D01*
X0021259Y0082684D01*
X0021101Y0082712D01*
X0020943Y0082743D01*
X0020787Y0082779D01*
X0020631Y0082818D01*
X0020476Y0082861D01*
X0020322Y0082908D01*
X0020169Y0082959D01*
X0020018Y0083014D01*
X0019868Y0083072D01*
X0019720Y0083134D01*
X0019573Y0083200D01*
X0019428Y0083269D01*
X0019285Y0083342D01*
X0019143Y0083418D01*
X0019004Y0083498D01*
X0018866Y0083581D01*
X0018731Y0083668D01*
X0018597Y0083758D01*
X0018466Y0083851D01*
X0018338Y0083947D01*
X0018212Y0084047D01*
X0018088Y0084150D01*
X0017967Y0084255D01*
X0017848Y0084364D01*
X0017732Y0084475D01*
X0017619Y0084590D01*
X0017509Y0084707D01*
X0017402Y0084827D01*
X0017298Y0084949D01*
X0017197Y0085074D01*
X0017099Y0085202D01*
X0017004Y0085332D01*
X0016912Y0085464D01*
X0016824Y0085598D01*
X0016739Y0085735D01*
X0016657Y0085873D01*
X0016579Y0086014D01*
X0016505Y0086156D01*
X0016434Y0086300D01*
X0016366Y0086446D01*
X0016303Y0086594D01*
X0016242Y0086743D01*
X0016186Y0086894D01*
X0016133Y0087046D01*
X0016084Y0087199D01*
X0016039Y0087353D01*
X0015998Y0087508D01*
X0015960Y0087665D01*
X0015927Y0087822D01*
X0015897Y0087980D01*
X0015871Y0088139D01*
X0015850Y0088298D01*
X0015832Y0088458D01*
X0015818Y0088618D01*
X0015808Y0088779D01*
X0015802Y0088939D01*
X0015800Y0089100D01*
X0010600Y0119100D02*
X0010600Y0133100D01*
X0030600Y0133100D01*
X0112600Y0133100D01*
X0112600Y0131100D01*
X0112100Y0131100D01*
X0112100Y0121600D01*
X0112098Y0121502D01*
X0112092Y0121404D01*
X0112083Y0121306D01*
X0112069Y0121209D01*
X0112052Y0121112D01*
X0112031Y0121016D01*
X0112006Y0120921D01*
X0111978Y0120827D01*
X0111945Y0120735D01*
X0111910Y0120643D01*
X0111870Y0120553D01*
X0111828Y0120465D01*
X0111781Y0120378D01*
X0111732Y0120294D01*
X0111679Y0120211D01*
X0111623Y0120131D01*
X0111563Y0120052D01*
X0111501Y0119976D01*
X0111436Y0119903D01*
X0111368Y0119832D01*
X0111297Y0119764D01*
X0111224Y0119699D01*
X0111148Y0119637D01*
X0111069Y0119577D01*
X0110989Y0119521D01*
X0110906Y0119468D01*
X0110822Y0119419D01*
X0110735Y0119372D01*
X0110647Y0119330D01*
X0110557Y0119290D01*
X0110465Y0119255D01*
X0110373Y0119222D01*
X0110279Y0119194D01*
X0110184Y0119169D01*
X0110088Y0119148D01*
X0109991Y0119131D01*
X0109894Y0119117D01*
X0109796Y0119108D01*
X0109698Y0119102D01*
X0109600Y0119100D01*
X0112600Y0133100D02*
X0132600Y0133100D01*
X0132600Y0119100D01*
X0114400Y0089100D02*
X0114402Y0089261D01*
X0114408Y0089421D01*
X0114418Y0089582D01*
X0114432Y0089742D01*
X0114450Y0089902D01*
X0114471Y0090061D01*
X0114497Y0090220D01*
X0114527Y0090378D01*
X0114560Y0090535D01*
X0114598Y0090692D01*
X0114639Y0090847D01*
X0114684Y0091001D01*
X0114733Y0091154D01*
X0114786Y0091306D01*
X0114842Y0091457D01*
X0114903Y0091606D01*
X0114966Y0091754D01*
X0115034Y0091900D01*
X0115105Y0092044D01*
X0115179Y0092186D01*
X0115257Y0092327D01*
X0115339Y0092465D01*
X0115424Y0092602D01*
X0115512Y0092736D01*
X0115604Y0092868D01*
X0115699Y0092998D01*
X0115797Y0093126D01*
X0115898Y0093251D01*
X0116002Y0093373D01*
X0116109Y0093493D01*
X0116219Y0093610D01*
X0116332Y0093725D01*
X0116448Y0093836D01*
X0116567Y0093945D01*
X0116688Y0094050D01*
X0116812Y0094153D01*
X0116938Y0094253D01*
X0117066Y0094349D01*
X0117197Y0094442D01*
X0117331Y0094532D01*
X0117466Y0094619D01*
X0117604Y0094702D01*
X0117743Y0094782D01*
X0117885Y0094858D01*
X0118028Y0094931D01*
X0118173Y0095000D01*
X0118320Y0095066D01*
X0118468Y0095128D01*
X0118618Y0095186D01*
X0118769Y0095241D01*
X0118922Y0095292D01*
X0119076Y0095339D01*
X0119231Y0095382D01*
X0119387Y0095421D01*
X0119543Y0095457D01*
X0119701Y0095488D01*
X0119859Y0095516D01*
X0120018Y0095540D01*
X0120178Y0095560D01*
X0120338Y0095576D01*
X0120498Y0095588D01*
X0120659Y0095596D01*
X0120820Y0095600D01*
X0120980Y0095600D01*
X0121141Y0095596D01*
X0121302Y0095588D01*
X0121462Y0095576D01*
X0121622Y0095560D01*
X0121782Y0095540D01*
X0121941Y0095516D01*
X0122099Y0095488D01*
X0122257Y0095457D01*
X0122413Y0095421D01*
X0122569Y0095382D01*
X0122724Y0095339D01*
X0122878Y0095292D01*
X0123031Y0095241D01*
X0123182Y0095186D01*
X0123332Y0095128D01*
X0123480Y0095066D01*
X0123627Y0095000D01*
X0123772Y0094931D01*
X0123915Y0094858D01*
X0124057Y0094782D01*
X0124196Y0094702D01*
X0124334Y0094619D01*
X0124469Y0094532D01*
X0124603Y0094442D01*
X0124734Y0094349D01*
X0124862Y0094253D01*
X0124988Y0094153D01*
X0125112Y0094050D01*
X0125233Y0093945D01*
X0125352Y0093836D01*
X0125468Y0093725D01*
X0125581Y0093610D01*
X0125691Y0093493D01*
X0125798Y0093373D01*
X0125902Y0093251D01*
X0126003Y0093126D01*
X0126101Y0092998D01*
X0126196Y0092868D01*
X0126288Y0092736D01*
X0126376Y0092602D01*
X0126461Y0092465D01*
X0126543Y0092327D01*
X0126621Y0092186D01*
X0126695Y0092044D01*
X0126766Y0091900D01*
X0126834Y0091754D01*
X0126897Y0091606D01*
X0126958Y0091457D01*
X0127014Y0091306D01*
X0127067Y0091154D01*
X0127116Y0091001D01*
X0127161Y0090847D01*
X0127202Y0090692D01*
X0127240Y0090535D01*
X0127273Y0090378D01*
X0127303Y0090220D01*
X0127329Y0090061D01*
X0127350Y0089902D01*
X0127368Y0089742D01*
X0127382Y0089582D01*
X0127392Y0089421D01*
X0127398Y0089261D01*
X0127400Y0089100D01*
X0127398Y0088939D01*
X0127392Y0088779D01*
X0127382Y0088618D01*
X0127368Y0088458D01*
X0127350Y0088298D01*
X0127329Y0088139D01*
X0127303Y0087980D01*
X0127273Y0087822D01*
X0127240Y0087665D01*
X0127202Y0087508D01*
X0127161Y0087353D01*
X0127116Y0087199D01*
X0127067Y0087046D01*
X0127014Y0086894D01*
X0126958Y0086743D01*
X0126897Y0086594D01*
X0126834Y0086446D01*
X0126766Y0086300D01*
X0126695Y0086156D01*
X0126621Y0086014D01*
X0126543Y0085873D01*
X0126461Y0085735D01*
X0126376Y0085598D01*
X0126288Y0085464D01*
X0126196Y0085332D01*
X0126101Y0085202D01*
X0126003Y0085074D01*
X0125902Y0084949D01*
X0125798Y0084827D01*
X0125691Y0084707D01*
X0125581Y0084590D01*
X0125468Y0084475D01*
X0125352Y0084364D01*
X0125233Y0084255D01*
X0125112Y0084150D01*
X0124988Y0084047D01*
X0124862Y0083947D01*
X0124734Y0083851D01*
X0124603Y0083758D01*
X0124469Y0083668D01*
X0124334Y0083581D01*
X0124196Y0083498D01*
X0124057Y0083418D01*
X0123915Y0083342D01*
X0123772Y0083269D01*
X0123627Y0083200D01*
X0123480Y0083134D01*
X0123332Y0083072D01*
X0123182Y0083014D01*
X0123031Y0082959D01*
X0122878Y0082908D01*
X0122724Y0082861D01*
X0122569Y0082818D01*
X0122413Y0082779D01*
X0122257Y0082743D01*
X0122099Y0082712D01*
X0121941Y0082684D01*
X0121782Y0082660D01*
X0121622Y0082640D01*
X0121462Y0082624D01*
X0121302Y0082612D01*
X0121141Y0082604D01*
X0120980Y0082600D01*
X0120820Y0082600D01*
X0120659Y0082604D01*
X0120498Y0082612D01*
X0120338Y0082624D01*
X0120178Y0082640D01*
X0120018Y0082660D01*
X0119859Y0082684D01*
X0119701Y0082712D01*
X0119543Y0082743D01*
X0119387Y0082779D01*
X0119231Y0082818D01*
X0119076Y0082861D01*
X0118922Y0082908D01*
X0118769Y0082959D01*
X0118618Y0083014D01*
X0118468Y0083072D01*
X0118320Y0083134D01*
X0118173Y0083200D01*
X0118028Y0083269D01*
X0117885Y0083342D01*
X0117743Y0083418D01*
X0117604Y0083498D01*
X0117466Y0083581D01*
X0117331Y0083668D01*
X0117197Y0083758D01*
X0117066Y0083851D01*
X0116938Y0083947D01*
X0116812Y0084047D01*
X0116688Y0084150D01*
X0116567Y0084255D01*
X0116448Y0084364D01*
X0116332Y0084475D01*
X0116219Y0084590D01*
X0116109Y0084707D01*
X0116002Y0084827D01*
X0115898Y0084949D01*
X0115797Y0085074D01*
X0115699Y0085202D01*
X0115604Y0085332D01*
X0115512Y0085464D01*
X0115424Y0085598D01*
X0115339Y0085735D01*
X0115257Y0085873D01*
X0115179Y0086014D01*
X0115105Y0086156D01*
X0115034Y0086300D01*
X0114966Y0086446D01*
X0114903Y0086594D01*
X0114842Y0086743D01*
X0114786Y0086894D01*
X0114733Y0087046D01*
X0114684Y0087199D01*
X0114639Y0087353D01*
X0114598Y0087508D01*
X0114560Y0087665D01*
X0114527Y0087822D01*
X0114497Y0087980D01*
X0114471Y0088139D01*
X0114450Y0088298D01*
X0114432Y0088458D01*
X0114418Y0088618D01*
X0114408Y0088779D01*
X0114402Y0088939D01*
X0114400Y0089100D01*
X0094100Y0029100D02*
X0089100Y0029100D01*
X0086600Y0026600D01*
X0084100Y0029100D01*
X0079100Y0029100D01*
X0076600Y0026600D01*
X0076600Y0021600D01*
X0079100Y0019100D01*
X0084100Y0019100D01*
X0086600Y0021600D01*
X0086600Y0026600D01*
X0086600Y0021600D02*
X0089100Y0019100D01*
X0094100Y0019100D01*
X0096600Y0021600D01*
X0096600Y0026600D01*
X0094100Y0029100D01*
X0076600Y0026600D02*
X0074100Y0029100D01*
X0069100Y0029100D01*
X0066600Y0026600D01*
X0064100Y0029100D01*
X0059100Y0029100D01*
X0056600Y0026600D01*
X0054100Y0029100D01*
X0049100Y0029100D01*
X0046600Y0026600D01*
X0046600Y0021600D01*
X0049100Y0019100D01*
X0054100Y0019100D01*
X0056600Y0021600D01*
X0056600Y0026600D01*
X0056600Y0021600D02*
X0059100Y0019100D01*
X0064100Y0019100D01*
X0066600Y0021600D01*
X0066600Y0026600D01*
X0066600Y0021600D02*
X0069100Y0019100D01*
X0074100Y0019100D01*
X0076600Y0021600D01*
X0033600Y0119100D02*
X0033502Y0119102D01*
X0033404Y0119108D01*
X0033306Y0119117D01*
X0033209Y0119131D01*
X0033112Y0119148D01*
X0033016Y0119169D01*
X0032921Y0119194D01*
X0032827Y0119222D01*
X0032735Y0119255D01*
X0032643Y0119290D01*
X0032553Y0119330D01*
X0032465Y0119372D01*
X0032378Y0119419D01*
X0032294Y0119468D01*
X0032211Y0119521D01*
X0032131Y0119577D01*
X0032052Y0119637D01*
X0031976Y0119699D01*
X0031903Y0119764D01*
X0031832Y0119832D01*
X0031764Y0119903D01*
X0031699Y0119976D01*
X0031637Y0120052D01*
X0031577Y0120131D01*
X0031521Y0120211D01*
X0031468Y0120294D01*
X0031419Y0120378D01*
X0031372Y0120465D01*
X0031330Y0120553D01*
X0031290Y0120643D01*
X0031255Y0120735D01*
X0031222Y0120827D01*
X0031194Y0120921D01*
X0031169Y0121016D01*
X0031148Y0121112D01*
X0031131Y0121209D01*
X0031117Y0121306D01*
X0031108Y0121404D01*
X0031102Y0121502D01*
X0031100Y0121600D01*
X0031100Y0131100D01*
X0030600Y0131100D01*
X0030600Y0133100D01*
D12*
X0027994Y0070755D02*
X0025892Y0070755D01*
X0024841Y0069704D01*
X0024841Y0068654D01*
X0025892Y0067603D01*
X0029045Y0067603D01*
X0029045Y0069704D02*
X0027994Y0070755D01*
X0029045Y0069704D02*
X0029045Y0065501D01*
X0027994Y0064450D01*
X0025892Y0064450D01*
X0024841Y0065501D01*
X0022599Y0065501D02*
X0021548Y0064450D01*
X0018395Y0064450D01*
X0018395Y0070755D01*
X0021548Y0070755D01*
X0022599Y0069704D01*
X0022599Y0068654D01*
X0021548Y0067603D01*
X0018395Y0067603D01*
X0016154Y0069704D02*
X0015103Y0070755D01*
X0011950Y0070755D01*
X0011950Y0064450D01*
X0015103Y0064450D01*
X0016154Y0065501D01*
X0016154Y0069704D01*
X0021548Y0067603D02*
X0022599Y0066552D01*
X0022599Y0065501D01*
D13*
X0041850Y0081850D02*
X0044853Y0081850D01*
X0043351Y0081850D02*
X0043351Y0086354D01*
X0041850Y0084853D01*
X0042601Y0091850D02*
X0044102Y0091850D01*
X0044853Y0092601D01*
X0044853Y0093351D01*
X0044102Y0094102D01*
X0041850Y0094102D01*
X0041850Y0092601D01*
X0042601Y0091850D01*
X0041850Y0094102D02*
X0043351Y0095603D01*
X0044853Y0096354D01*
X0047205Y0122850D02*
X0046454Y0123601D01*
X0049456Y0126603D01*
X0049456Y0123601D01*
X0048706Y0122850D01*
X0047205Y0122850D01*
X0046454Y0123601D02*
X0046454Y0126603D01*
X0047205Y0127354D01*
X0048706Y0127354D01*
X0049456Y0126603D01*
X0051058Y0126603D02*
X0051058Y0125853D01*
X0051808Y0125102D01*
X0054060Y0125102D01*
X0054060Y0123601D02*
X0054060Y0126603D01*
X0053310Y0127354D01*
X0051808Y0127354D01*
X0051058Y0126603D01*
X0051058Y0123601D02*
X0051808Y0122850D01*
X0053310Y0122850D01*
X0054060Y0123601D01*
X0044853Y0127354D02*
X0041850Y0127354D01*
X0041850Y0122850D01*
X0041850Y0125102D02*
X0043351Y0125102D01*
X0099350Y0095603D02*
X0099350Y0094853D01*
X0100101Y0094102D01*
X0102353Y0094102D01*
X0102353Y0092601D02*
X0102353Y0095603D01*
X0101602Y0096354D01*
X0100101Y0096354D01*
X0099350Y0095603D01*
X0099350Y0092601D02*
X0100101Y0091850D01*
X0101602Y0091850D01*
X0102353Y0092601D01*
X0102353Y0086354D02*
X0099350Y0086354D01*
X0099350Y0084102D01*
X0100851Y0084853D01*
X0101602Y0084853D01*
X0102353Y0084102D01*
X0102353Y0082601D01*
X0101602Y0081850D01*
X0100101Y0081850D01*
X0099350Y0082601D01*
X0125846Y0100101D02*
X0126597Y0099350D01*
X0125846Y0100101D02*
X0125846Y0101602D01*
X0126597Y0102353D01*
X0127347Y0102353D01*
X0130350Y0099350D01*
X0130350Y0102353D01*
X0131851Y0103954D02*
X0130350Y0105455D01*
X0130350Y0104705D01*
X0129599Y0104705D01*
X0129599Y0105455D01*
X0130350Y0105455D01*
X0129599Y0107023D02*
X0130350Y0107774D01*
X0130350Y0109275D01*
X0129599Y0110026D01*
X0128098Y0110026D01*
X0127347Y0109275D01*
X0127347Y0108524D01*
X0128098Y0107023D01*
X0125846Y0107023D01*
X0125846Y0110026D01*
X0128098Y0111627D02*
X0128098Y0114630D01*
X0125846Y0113879D02*
X0128098Y0111627D01*
X0130350Y0113879D02*
X0125846Y0113879D01*
D14*
X0071600Y0117600D03*
D15*
X0071500Y0101850D03*
X0060800Y0101850D03*
X0050000Y0101850D03*
X0082400Y0101850D03*
X0093200Y0101850D03*
D16*
X0087800Y0106850D03*
X0076900Y0106850D03*
X0066200Y0106850D03*
X0055400Y0106850D03*
M02*
