%
M48
M72
T01C0.0118
T02C0.0400
T03C0.1300
%
T01
X5410Y4910
X6910Y5910
X6910Y6410
X5410Y7910
X4910Y7410
T02
X5160Y2410
X6160Y2410
X7160Y2410
X8160Y2410
X9160Y2410
X9320Y8410
X8780Y9410
X8240Y8410
X7160Y8410
X6620Y9410
X7700Y9410
X6080Y8410
X5540Y9410
X5000Y8410
T03
X2230Y8910
X12090Y8910
M30
