G75*
%MOIN*%
%OFA0B0*%
%FSLAX25Y25*%
%IPPOS*%
%LPD*%
%AMOC8*
5,1,8,0,0,1.08239X$1,22.5*
%
%ADD10C,0.00600*%
%ADD11C,0.00300*%
D10*
X0064060Y0115832D02*
X0068330Y0115832D01*
X0070505Y0117968D02*
X0070505Y0120103D01*
X0071573Y0121170D01*
X0073708Y0121170D01*
X0074776Y0120103D01*
X0074776Y0117968D01*
X0073708Y0116900D01*
X0071573Y0116900D01*
X0070505Y0117968D01*
X0076937Y0116900D02*
X0078005Y0117968D01*
X0078005Y0122238D01*
X0079073Y0121170D02*
X0076937Y0121170D01*
X0081248Y0115832D02*
X0085518Y0115832D01*
X0089828Y0116900D02*
X0089828Y0123305D01*
X0087693Y0123305D02*
X0091964Y0123305D01*
X0094139Y0122238D02*
X0094139Y0120103D01*
X0095206Y0119035D01*
X0098409Y0119035D01*
X0096274Y0119035D02*
X0094139Y0116900D01*
X0098409Y0116900D02*
X0098409Y0123305D01*
X0095206Y0123305D01*
X0094139Y0122238D01*
X0100584Y0121170D02*
X0100584Y0116900D01*
X0100584Y0120103D02*
X0104855Y0120103D01*
X0104855Y0121170D02*
X0102719Y0123305D01*
X0100584Y0121170D01*
X0104855Y0121170D02*
X0104855Y0116900D01*
X0107030Y0117968D02*
X0107030Y0123305D01*
X0111300Y0123305D02*
X0111300Y0117968D01*
X0110232Y0116900D01*
X0108097Y0116900D01*
X0107030Y0117968D01*
X0061885Y0119035D02*
X0058682Y0119035D01*
X0057614Y0120103D01*
X0057614Y0122238D01*
X0058682Y0123305D01*
X0061885Y0123305D01*
X0061885Y0116900D01*
X0059749Y0119035D02*
X0057614Y0116900D01*
X0055439Y0117968D02*
X0054371Y0116900D01*
X0052236Y0116900D01*
X0051169Y0117968D01*
X0051169Y0119035D01*
X0052236Y0120103D01*
X0054371Y0120103D01*
X0055439Y0121170D01*
X0055439Y0122238D01*
X0054371Y0123305D01*
X0052236Y0123305D01*
X0051169Y0122238D01*
X0048994Y0122238D02*
X0047926Y0123305D01*
X0045791Y0123305D01*
X0044723Y0122238D01*
X0044723Y0121170D01*
X0048994Y0116900D01*
X0044723Y0116900D01*
X0042548Y0117968D02*
X0041480Y0116900D01*
X0039345Y0116900D01*
X0038278Y0117968D01*
X0038278Y0119035D01*
X0039345Y0120103D01*
X0040413Y0120103D01*
X0039345Y0120103D02*
X0038278Y0121170D01*
X0038278Y0122238D01*
X0039345Y0123305D01*
X0041480Y0123305D01*
X0042548Y0122238D01*
X0036103Y0122238D02*
X0035035Y0123305D01*
X0032900Y0123305D01*
X0031832Y0122238D01*
X0031832Y0121170D01*
X0036103Y0116900D01*
X0031832Y0116900D01*
D11*
X0086882Y0102367D02*
X0087500Y0101750D01*
X0088734Y0101750D01*
X0089351Y0102367D01*
X0086882Y0104836D01*
X0086882Y0102367D01*
X0086882Y0104836D02*
X0087500Y0105453D01*
X0088734Y0105453D01*
X0089351Y0104836D01*
X0089351Y0102367D01*
X0090576Y0102367D02*
X0090576Y0101750D01*
X0091193Y0101750D01*
X0091193Y0102367D01*
X0090576Y0102367D01*
X0092407Y0101750D02*
X0094876Y0101750D01*
X0093641Y0101750D02*
X0093641Y0105453D01*
X0094876Y0104219D01*
X0099783Y0102367D02*
X0099783Y0101750D01*
X0100401Y0101750D01*
X0100401Y0102367D01*
X0099783Y0102367D01*
X0101615Y0104219D02*
X0102849Y0101750D01*
X0104084Y0104219D01*
X0105298Y0103602D02*
X0105298Y0102984D01*
X0107767Y0102984D01*
X0107767Y0102367D02*
X0107767Y0103602D01*
X0107150Y0104219D01*
X0105915Y0104219D01*
X0105298Y0103602D01*
X0105915Y0101750D02*
X0107150Y0101750D01*
X0107767Y0102367D01*
X0108981Y0101750D02*
X0110216Y0102984D01*
X0109598Y0102984D02*
X0111450Y0102984D01*
X0111450Y0101750D02*
X0111450Y0105453D01*
X0109598Y0105453D01*
X0108981Y0104836D01*
X0108981Y0103602D01*
X0109598Y0102984D01*
X0108981Y0109250D02*
X0110833Y0109250D01*
X0111450Y0109867D01*
X0111450Y0111102D01*
X0110833Y0111719D01*
X0108981Y0111719D01*
X0107767Y0111102D02*
X0107767Y0109867D01*
X0107150Y0109250D01*
X0105298Y0109250D01*
X0104084Y0109250D02*
X0102232Y0109250D01*
X0101615Y0109867D01*
X0101615Y0111102D01*
X0102232Y0111719D01*
X0104084Y0111719D01*
X0105298Y0111719D02*
X0107150Y0111719D01*
X0107767Y0111102D01*
X0104084Y0112953D02*
X0104084Y0109250D01*
X0100401Y0109250D02*
X0100401Y0111719D01*
X0100401Y0110484D02*
X0099166Y0111719D01*
X0098549Y0111719D01*
X0097331Y0111719D02*
X0097331Y0109867D01*
X0096714Y0109250D01*
X0094863Y0109250D01*
X0094863Y0111719D01*
X0093648Y0111102D02*
X0093648Y0109867D01*
X0093031Y0109250D01*
X0091179Y0109250D01*
X0089965Y0109867D02*
X0089965Y0111102D01*
X0089348Y0111719D01*
X0088113Y0111719D01*
X0087496Y0111102D01*
X0087496Y0110484D01*
X0089965Y0110484D01*
X0089965Y0109867D02*
X0089348Y0109250D01*
X0088113Y0109250D01*
X0086282Y0109867D02*
X0086282Y0112336D01*
X0085665Y0112953D01*
X0084430Y0112953D01*
X0083813Y0112336D01*
X0083813Y0111102D01*
X0084430Y0110484D01*
X0084430Y0111719D01*
X0085665Y0111719D01*
X0085665Y0110484D01*
X0084430Y0110484D01*
X0083813Y0109867D02*
X0084430Y0109250D01*
X0085665Y0109250D01*
X0086282Y0109867D01*
X0082599Y0109867D02*
X0081982Y0109250D01*
X0080130Y0109250D01*
X0080130Y0108633D02*
X0080130Y0111719D01*
X0081982Y0111719D01*
X0082599Y0111102D01*
X0082599Y0109867D01*
X0081364Y0108016D02*
X0080747Y0108016D01*
X0080130Y0108633D01*
X0078916Y0109250D02*
X0078916Y0111719D01*
X0078298Y0111719D01*
X0077681Y0111102D01*
X0077064Y0111719D01*
X0076447Y0111102D01*
X0076447Y0109250D01*
X0077681Y0109250D02*
X0077681Y0111102D01*
X0075232Y0109867D02*
X0074615Y0110484D01*
X0072764Y0110484D01*
X0072764Y0111102D02*
X0072764Y0109250D01*
X0074615Y0109250D01*
X0075232Y0109867D01*
X0074615Y0111719D02*
X0073381Y0111719D01*
X0072764Y0111102D01*
X0071549Y0111719D02*
X0070932Y0111719D01*
X0070932Y0109250D01*
X0071549Y0109250D02*
X0070315Y0109250D01*
X0069094Y0109250D02*
X0067859Y0109250D01*
X0068477Y0109250D02*
X0068477Y0112953D01*
X0069094Y0112953D01*
X0070932Y0112953D02*
X0070932Y0113570D01*
X0066638Y0109867D02*
X0066021Y0109867D01*
X0066021Y0109250D01*
X0066638Y0109250D01*
X0066638Y0109867D01*
X0064797Y0109867D02*
X0064797Y0111102D01*
X0064180Y0111719D01*
X0062328Y0111719D01*
X0061114Y0111102D02*
X0061114Y0109867D01*
X0060497Y0109250D01*
X0059262Y0109250D01*
X0058645Y0109867D01*
X0058645Y0111102D01*
X0059262Y0111719D01*
X0060497Y0111719D01*
X0061114Y0111102D01*
X0062328Y0109250D02*
X0064180Y0109250D01*
X0064797Y0109867D01*
X0057431Y0109250D02*
X0057431Y0111719D01*
X0056813Y0111719D01*
X0056196Y0111102D01*
X0055579Y0111719D01*
X0054962Y0111102D01*
X0054962Y0109250D01*
X0056196Y0109250D02*
X0056196Y0111102D01*
X0091179Y0111719D02*
X0093031Y0111719D01*
X0093648Y0111102D01*
M02*
