G75*
%MOIN*%
%OFA0B0*%
%FSLAX25Y25*%
%IPPOS*%
%LPD*%
%AMOC8*
5,1,8,0,0,1.08239X$1,22.5*
%
%ADD10OC8,0.06000*%
%ADD11C,0.20000*%
%ADD12C,0.06000*%
%ADD13C,0.01200*%
%ADD14C,0.02781*%
D10*
X0050000Y0084100D03*
X0055400Y0094100D03*
X0060800Y0084100D03*
X0066200Y0094100D03*
X0077000Y0094100D03*
X0071600Y0084100D03*
X0082400Y0084100D03*
X0087800Y0094100D03*
X0093200Y0084100D03*
D11*
X0120900Y0089100D03*
X0022300Y0089100D03*
D12*
X0051600Y0027100D02*
X0051600Y0021100D01*
X0061600Y0021100D02*
X0061600Y0027100D01*
X0071600Y0027100D02*
X0071600Y0021100D01*
X0081600Y0021100D02*
X0081600Y0027100D01*
X0091600Y0027100D02*
X0091600Y0021100D01*
D13*
X0013113Y0013113D02*
X0012100Y0014506D01*
X0011568Y0016144D01*
X0011500Y0017006D01*
X0011500Y0017483D01*
X0011500Y0084206D01*
X0012858Y0081855D01*
X0015055Y0079658D01*
X0017745Y0078104D01*
X0020746Y0077300D01*
X0023853Y0077300D01*
X0026855Y0078104D01*
X0029545Y0079658D01*
X0031742Y0081855D01*
X0033296Y0084545D01*
X0034100Y0087546D01*
X0034100Y0090653D01*
X0033296Y0093655D01*
X0031742Y0096345D01*
X0029545Y0098542D01*
X0026855Y0100096D01*
X0023853Y0100900D01*
X0020746Y0100900D01*
X0017745Y0100096D01*
X0015055Y0098542D01*
X0012858Y0096345D01*
X0011500Y0093994D01*
X0011500Y0131700D01*
X0131700Y0131700D01*
X0131700Y0093994D01*
X0130342Y0096345D01*
X0128145Y0098542D01*
X0125455Y0100096D01*
X0122453Y0100900D01*
X0119346Y0100900D01*
X0116345Y0100096D01*
X0113655Y0098542D01*
X0111458Y0096345D01*
X0109904Y0093655D01*
X0109100Y0090653D01*
X0109100Y0087546D01*
X0109904Y0084545D01*
X0111458Y0081855D01*
X0113655Y0079658D01*
X0116345Y0078104D01*
X0119346Y0077300D01*
X0122453Y0077300D01*
X0125455Y0078104D01*
X0128145Y0079658D01*
X0130342Y0081855D01*
X0131700Y0084206D01*
X0131700Y0017006D01*
X0131632Y0016144D01*
X0131100Y0014506D01*
X0130087Y0013113D01*
X0128694Y0012100D01*
X0127056Y0011568D01*
X0126194Y0011500D01*
X0017006Y0011500D01*
X0016144Y0011568D01*
X0014506Y0012100D01*
X0013113Y0013113D01*
X0012865Y0013454D02*
X0017392Y0013454D01*
X0018045Y0013017D02*
X0018045Y0013017D01*
X0021600Y0012310D01*
X0025155Y0013017D01*
X0028169Y0015031D01*
X0030183Y0018045D01*
X0030890Y0021600D01*
X0030183Y0025155D01*
X0028169Y0028169D01*
X0028169Y0028169D01*
X0028169Y0028169D01*
X0025155Y0030183D01*
X0021600Y0030890D01*
X0018045Y0030183D01*
X0015031Y0028169D01*
X0015031Y0028169D01*
X0015031Y0028169D01*
X0013017Y0025155D01*
X0012310Y0021600D01*
X0013017Y0018045D01*
X0015031Y0015031D01*
X0015031Y0015031D01*
X0015031Y0015031D01*
X0018045Y0013017D01*
X0015598Y0014652D02*
X0012053Y0014652D01*
X0011663Y0015851D02*
X0014484Y0015851D01*
X0013683Y0017049D02*
X0011500Y0017049D01*
X0011500Y0018248D02*
X0012977Y0018248D01*
X0013017Y0018045D02*
X0013017Y0018045D01*
X0012739Y0019446D02*
X0011500Y0019446D01*
X0011500Y0020645D02*
X0012500Y0020645D01*
X0012310Y0021600D02*
X0012310Y0021600D01*
X0012359Y0021843D02*
X0011500Y0021843D01*
X0011500Y0023042D02*
X0012597Y0023042D01*
X0012835Y0024240D02*
X0011500Y0024240D01*
X0011500Y0025439D02*
X0013207Y0025439D01*
X0013017Y0025155D02*
X0013017Y0025155D01*
X0014008Y0026637D02*
X0011500Y0026637D01*
X0011500Y0027836D02*
X0014809Y0027836D01*
X0016326Y0029034D02*
X0011500Y0029034D01*
X0011500Y0030233D02*
X0018297Y0030233D01*
X0018045Y0030183D02*
X0018045Y0030183D01*
X0021600Y0030890D02*
X0021600Y0030890D01*
X0024903Y0030233D02*
X0048227Y0030233D01*
X0048091Y0030097D02*
X0047666Y0029511D01*
X0047337Y0028866D01*
X0047113Y0028177D01*
X0047000Y0027462D01*
X0047000Y0024500D01*
X0051200Y0024500D01*
X0051200Y0031694D01*
X0050523Y0031587D01*
X0049834Y0031363D01*
X0049189Y0031034D01*
X0048603Y0030609D01*
X0048091Y0030097D01*
X0047423Y0029034D02*
X0026874Y0029034D01*
X0028391Y0027836D02*
X0047059Y0027836D01*
X0047000Y0026637D02*
X0029192Y0026637D01*
X0029993Y0025439D02*
X0047000Y0025439D01*
X0047000Y0023700D02*
X0047000Y0020738D01*
X0047113Y0020023D01*
X0047337Y0019334D01*
X0047666Y0018689D01*
X0048091Y0018103D01*
X0048603Y0017591D01*
X0049189Y0017166D01*
X0049834Y0016837D01*
X0050523Y0016613D01*
X0051200Y0016506D01*
X0051200Y0023700D01*
X0047000Y0023700D01*
X0047000Y0023042D02*
X0030603Y0023042D01*
X0030365Y0024240D02*
X0051200Y0024240D01*
X0051200Y0024500D02*
X0051200Y0023700D01*
X0052000Y0023700D01*
X0052000Y0024500D01*
X0051200Y0024500D01*
X0052000Y0024500D02*
X0052000Y0031694D01*
X0052677Y0031587D01*
X0053366Y0031363D01*
X0054011Y0031034D01*
X0054597Y0030609D01*
X0055109Y0030097D01*
X0055534Y0029511D01*
X0055863Y0028866D01*
X0056087Y0028177D01*
X0056200Y0027462D01*
X0056200Y0024500D01*
X0052000Y0024500D01*
X0052000Y0024240D02*
X0056800Y0024240D01*
X0056200Y0023700D02*
X0052000Y0023700D01*
X0052000Y0016506D01*
X0052677Y0016613D01*
X0053366Y0016837D01*
X0054011Y0017166D01*
X0054597Y0017591D01*
X0055109Y0018103D01*
X0055534Y0018689D01*
X0055863Y0019334D01*
X0056087Y0020023D01*
X0056200Y0020738D01*
X0056200Y0023700D01*
X0056200Y0023042D02*
X0056800Y0023042D01*
X0056800Y0021843D02*
X0056200Y0021843D01*
X0056185Y0020645D02*
X0056800Y0020645D01*
X0056800Y0020145D02*
X0057531Y0018381D01*
X0058881Y0017031D01*
X0060645Y0016300D01*
X0062555Y0016300D01*
X0064319Y0017031D01*
X0065669Y0018381D01*
X0066400Y0020145D01*
X0066400Y0028055D01*
X0065669Y0029819D01*
X0064319Y0031169D01*
X0062555Y0031900D01*
X0061159Y0031900D01*
X0059424Y0033635D01*
X0051500Y0041559D01*
X0051500Y0047188D01*
X0052293Y0046395D01*
X0053465Y0045909D01*
X0054735Y0045909D01*
X0055907Y0046395D01*
X0056805Y0047293D01*
X0057291Y0048465D01*
X0057291Y0049735D01*
X0056805Y0050907D01*
X0056500Y0051212D01*
X0056500Y0076988D01*
X0056805Y0077293D01*
X0057291Y0078465D01*
X0057291Y0079735D01*
X0056805Y0080907D01*
X0055907Y0081805D01*
X0054800Y0082263D01*
X0054800Y0086088D01*
X0051988Y0088900D01*
X0048012Y0088900D01*
X0045200Y0086088D01*
X0045200Y0082112D01*
X0048012Y0079300D01*
X0050909Y0079300D01*
X0050909Y0078465D01*
X0051395Y0077293D01*
X0051700Y0076988D01*
X0051700Y0076012D01*
X0050907Y0076805D01*
X0049735Y0077291D01*
X0048465Y0077291D01*
X0047293Y0076805D01*
X0046395Y0075907D01*
X0045909Y0074735D01*
X0045909Y0073465D01*
X0046395Y0072293D01*
X0046700Y0071988D01*
X0046700Y0040087D01*
X0047065Y0039205D01*
X0047741Y0038530D01*
X0056030Y0030241D01*
X0057215Y0029056D01*
X0056800Y0028055D01*
X0056800Y0020145D01*
X0057090Y0019446D02*
X0055899Y0019446D01*
X0055214Y0018248D02*
X0057664Y0018248D01*
X0058863Y0017049D02*
X0053782Y0017049D01*
X0052000Y0017049D02*
X0051200Y0017049D01*
X0051200Y0018248D02*
X0052000Y0018248D01*
X0052000Y0019446D02*
X0051200Y0019446D01*
X0051200Y0020645D02*
X0052000Y0020645D01*
X0052000Y0021843D02*
X0051200Y0021843D01*
X0051200Y0023042D02*
X0052000Y0023042D01*
X0052000Y0025439D02*
X0051200Y0025439D01*
X0051200Y0026637D02*
X0052000Y0026637D01*
X0052000Y0027836D02*
X0051200Y0027836D01*
X0051200Y0029034D02*
X0052000Y0029034D01*
X0052000Y0030233D02*
X0051200Y0030233D01*
X0051200Y0031431D02*
X0052000Y0031431D01*
X0053156Y0031431D02*
X0054839Y0031431D01*
X0054973Y0030233D02*
X0056038Y0030233D01*
X0055777Y0029034D02*
X0057206Y0029034D01*
X0056800Y0027836D02*
X0056141Y0027836D01*
X0056200Y0026637D02*
X0056800Y0026637D01*
X0056800Y0025439D02*
X0056200Y0025439D01*
X0061600Y0024100D02*
X0061600Y0028064D01*
X0058064Y0031600D01*
X0049100Y0040564D01*
X0049100Y0074100D01*
X0047703Y0076975D02*
X0011500Y0076975D01*
X0011500Y0078173D02*
X0017626Y0078173D01*
X0015550Y0079372D02*
X0011500Y0079372D01*
X0011500Y0080570D02*
X0014142Y0080570D01*
X0012944Y0081769D02*
X0011500Y0081769D01*
X0011500Y0082967D02*
X0012215Y0082967D01*
X0011523Y0084166D02*
X0011500Y0084166D01*
X0011500Y0075776D02*
X0046341Y0075776D01*
X0045909Y0074578D02*
X0011500Y0074578D01*
X0011500Y0073379D02*
X0045945Y0073379D01*
X0046507Y0072181D02*
X0011500Y0072181D01*
X0011500Y0070982D02*
X0046700Y0070982D01*
X0046700Y0069784D02*
X0011500Y0069784D01*
X0011500Y0068585D02*
X0046700Y0068585D01*
X0046700Y0067387D02*
X0011500Y0067387D01*
X0011500Y0066188D02*
X0046700Y0066188D01*
X0046700Y0064990D02*
X0011500Y0064990D01*
X0011500Y0063791D02*
X0046700Y0063791D01*
X0046700Y0062593D02*
X0011500Y0062593D01*
X0011500Y0061394D02*
X0046700Y0061394D01*
X0046700Y0060196D02*
X0011500Y0060196D01*
X0011500Y0058997D02*
X0046700Y0058997D01*
X0046700Y0057799D02*
X0011500Y0057799D01*
X0011500Y0056600D02*
X0046700Y0056600D01*
X0046700Y0055401D02*
X0011500Y0055401D01*
X0011500Y0054203D02*
X0046700Y0054203D01*
X0046700Y0053004D02*
X0011500Y0053004D01*
X0011500Y0051806D02*
X0046700Y0051806D01*
X0046700Y0050607D02*
X0011500Y0050607D01*
X0011500Y0049409D02*
X0046700Y0049409D01*
X0046700Y0048210D02*
X0011500Y0048210D01*
X0011500Y0047012D02*
X0046700Y0047012D01*
X0046700Y0045813D02*
X0011500Y0045813D01*
X0011500Y0044615D02*
X0046700Y0044615D01*
X0046700Y0043416D02*
X0011500Y0043416D01*
X0011500Y0042218D02*
X0046700Y0042218D01*
X0046700Y0041019D02*
X0011500Y0041019D01*
X0011500Y0039821D02*
X0046810Y0039821D01*
X0047648Y0038622D02*
X0011500Y0038622D01*
X0011500Y0037424D02*
X0048847Y0037424D01*
X0050045Y0036225D02*
X0011500Y0036225D01*
X0011500Y0035027D02*
X0051244Y0035027D01*
X0052442Y0033828D02*
X0011500Y0033828D01*
X0011500Y0032630D02*
X0053641Y0032630D01*
X0050044Y0031431D02*
X0011500Y0031431D01*
X0025155Y0030183D02*
X0025155Y0030183D01*
X0030183Y0025155D02*
X0030183Y0025155D01*
X0030841Y0021843D02*
X0047000Y0021843D01*
X0047015Y0020645D02*
X0030700Y0020645D01*
X0030461Y0019446D02*
X0047301Y0019446D01*
X0047986Y0018248D02*
X0030223Y0018248D01*
X0030183Y0018045D02*
X0030183Y0018045D01*
X0029517Y0017049D02*
X0049418Y0017049D01*
X0064337Y0017049D02*
X0068863Y0017049D01*
X0068881Y0017031D02*
X0070645Y0016300D01*
X0072555Y0016300D01*
X0074319Y0017031D01*
X0075669Y0018381D01*
X0076400Y0020145D01*
X0076400Y0028055D01*
X0075669Y0029819D01*
X0074319Y0031169D01*
X0074000Y0031301D01*
X0074000Y0032270D01*
X0076705Y0029565D01*
X0077215Y0029056D01*
X0076800Y0028055D01*
X0076800Y0020145D01*
X0077531Y0018381D01*
X0078881Y0017031D01*
X0080645Y0016300D01*
X0082555Y0016300D01*
X0084319Y0017031D01*
X0085669Y0018381D01*
X0086400Y0020145D01*
X0086400Y0028055D01*
X0085669Y0029819D01*
X0084319Y0031169D01*
X0082555Y0031900D01*
X0081159Y0031900D01*
X0080099Y0032959D01*
X0076500Y0036559D01*
X0076500Y0059577D01*
X0076135Y0060459D01*
X0072291Y0064304D01*
X0072291Y0064735D01*
X0071805Y0065907D01*
X0070907Y0066805D01*
X0069735Y0067291D01*
X0068465Y0067291D01*
X0067293Y0066805D01*
X0066395Y0065907D01*
X0065909Y0064735D01*
X0065909Y0063465D01*
X0066395Y0062293D01*
X0067088Y0061600D01*
X0066395Y0060907D01*
X0065909Y0059735D01*
X0065909Y0058465D01*
X0066395Y0057293D01*
X0067293Y0056395D01*
X0068465Y0055909D01*
X0068896Y0055909D01*
X0069200Y0055606D01*
X0069200Y0031301D01*
X0068881Y0031169D01*
X0067531Y0029819D01*
X0066800Y0028055D01*
X0066800Y0020145D01*
X0067531Y0018381D01*
X0068881Y0017031D01*
X0067664Y0018248D02*
X0065536Y0018248D01*
X0066110Y0019446D02*
X0067090Y0019446D01*
X0066800Y0020645D02*
X0066400Y0020645D01*
X0066400Y0021843D02*
X0066800Y0021843D01*
X0066800Y0023042D02*
X0066400Y0023042D01*
X0066400Y0024240D02*
X0066800Y0024240D01*
X0066800Y0025439D02*
X0066400Y0025439D01*
X0066400Y0026637D02*
X0066800Y0026637D01*
X0066800Y0027836D02*
X0066400Y0027836D01*
X0065994Y0029034D02*
X0067206Y0029034D01*
X0067945Y0030233D02*
X0065255Y0030233D01*
X0063686Y0031431D02*
X0069200Y0031431D01*
X0069200Y0032630D02*
X0060429Y0032630D01*
X0059230Y0033828D02*
X0069200Y0033828D01*
X0069200Y0035027D02*
X0058032Y0035027D01*
X0056833Y0036225D02*
X0069200Y0036225D01*
X0069200Y0037424D02*
X0055635Y0037424D01*
X0054436Y0038622D02*
X0069200Y0038622D01*
X0069200Y0039821D02*
X0053238Y0039821D01*
X0052039Y0041019D02*
X0069200Y0041019D01*
X0069200Y0042218D02*
X0051500Y0042218D01*
X0051500Y0043416D02*
X0069200Y0043416D01*
X0069200Y0044615D02*
X0051500Y0044615D01*
X0051500Y0045813D02*
X0069200Y0045813D01*
X0069200Y0047012D02*
X0056524Y0047012D01*
X0057185Y0048210D02*
X0069200Y0048210D01*
X0069200Y0049409D02*
X0057291Y0049409D01*
X0056929Y0050607D02*
X0069200Y0050607D01*
X0069200Y0051806D02*
X0056500Y0051806D01*
X0056500Y0053004D02*
X0069200Y0053004D01*
X0069200Y0054203D02*
X0056500Y0054203D01*
X0056500Y0055401D02*
X0069200Y0055401D01*
X0067088Y0056600D02*
X0056500Y0056600D01*
X0056500Y0057799D02*
X0066186Y0057799D01*
X0065909Y0058997D02*
X0056500Y0058997D01*
X0056500Y0060196D02*
X0066100Y0060196D01*
X0066882Y0061394D02*
X0056500Y0061394D01*
X0056500Y0062593D02*
X0066271Y0062593D01*
X0065909Y0063791D02*
X0056500Y0063791D01*
X0056500Y0064990D02*
X0066015Y0064990D01*
X0066676Y0066188D02*
X0056500Y0066188D01*
X0056500Y0067387D02*
X0131700Y0067387D01*
X0131700Y0068585D02*
X0056500Y0068585D01*
X0056500Y0069784D02*
X0131700Y0069784D01*
X0131700Y0070982D02*
X0056500Y0070982D01*
X0056500Y0072181D02*
X0131700Y0072181D01*
X0131700Y0073379D02*
X0056500Y0073379D01*
X0056500Y0074578D02*
X0131700Y0074578D01*
X0131700Y0075776D02*
X0056500Y0075776D01*
X0056500Y0076975D02*
X0131700Y0076975D01*
X0131700Y0078173D02*
X0125574Y0078173D01*
X0127650Y0079372D02*
X0131700Y0079372D01*
X0131700Y0080570D02*
X0129058Y0080570D01*
X0130256Y0081769D02*
X0131700Y0081769D01*
X0131700Y0082967D02*
X0130985Y0082967D01*
X0131677Y0084166D02*
X0131700Y0084166D01*
X0131700Y0094952D02*
X0131147Y0094952D01*
X0131700Y0096151D02*
X0130455Y0096151D01*
X0129338Y0097349D02*
X0131700Y0097349D01*
X0131700Y0098548D02*
X0128136Y0098548D01*
X0126060Y0099746D02*
X0131700Y0099746D01*
X0131700Y0100945D02*
X0011500Y0100945D01*
X0011500Y0102143D02*
X0131700Y0102143D01*
X0131700Y0103342D02*
X0011500Y0103342D01*
X0011500Y0104540D02*
X0131700Y0104540D01*
X0131700Y0105739D02*
X0011500Y0105739D01*
X0011500Y0106937D02*
X0131700Y0106937D01*
X0131700Y0108136D02*
X0011500Y0108136D01*
X0011500Y0109334D02*
X0131700Y0109334D01*
X0131700Y0110533D02*
X0011500Y0110533D01*
X0011500Y0111732D02*
X0131700Y0111732D01*
X0131700Y0112930D02*
X0011500Y0112930D01*
X0011500Y0114129D02*
X0131700Y0114129D01*
X0131700Y0115327D02*
X0011500Y0115327D01*
X0011500Y0116526D02*
X0131700Y0116526D01*
X0131700Y0117724D02*
X0011500Y0117724D01*
X0011500Y0118923D02*
X0131700Y0118923D01*
X0131700Y0120121D02*
X0011500Y0120121D01*
X0011500Y0121320D02*
X0131700Y0121320D01*
X0131700Y0122518D02*
X0011500Y0122518D01*
X0011500Y0123717D02*
X0131700Y0123717D01*
X0131700Y0124915D02*
X0011500Y0124915D01*
X0011500Y0126114D02*
X0131700Y0126114D01*
X0131700Y0127312D02*
X0011500Y0127312D01*
X0011500Y0128511D02*
X0131700Y0128511D01*
X0131700Y0129709D02*
X0011500Y0129709D01*
X0011500Y0130908D02*
X0131700Y0130908D01*
X0115740Y0099746D02*
X0027460Y0099746D01*
X0029536Y0098548D02*
X0053060Y0098548D01*
X0053412Y0098900D02*
X0050600Y0096088D01*
X0050600Y0092112D01*
X0053412Y0089300D01*
X0057388Y0089300D01*
X0060200Y0092112D01*
X0060200Y0096088D01*
X0057388Y0098900D01*
X0053412Y0098900D01*
X0051861Y0097349D02*
X0030738Y0097349D01*
X0031855Y0096151D02*
X0050663Y0096151D01*
X0050600Y0094952D02*
X0032547Y0094952D01*
X0033239Y0093754D02*
X0050600Y0093754D01*
X0050600Y0092555D02*
X0033590Y0092555D01*
X0033912Y0091357D02*
X0051355Y0091357D01*
X0052553Y0090158D02*
X0034100Y0090158D01*
X0034100Y0088960D02*
X0109100Y0088960D01*
X0109100Y0090158D02*
X0090647Y0090158D01*
X0089788Y0089300D02*
X0092600Y0092112D01*
X0092600Y0096088D01*
X0089788Y0098900D01*
X0085812Y0098900D01*
X0083000Y0096088D01*
X0083000Y0092112D01*
X0085812Y0089300D01*
X0089788Y0089300D01*
X0091295Y0088700D02*
X0088600Y0086005D01*
X0088600Y0084500D01*
X0092800Y0084500D01*
X0092800Y0088700D01*
X0091295Y0088700D01*
X0090356Y0087761D02*
X0085527Y0087761D01*
X0084388Y0088900D02*
X0080412Y0088900D01*
X0077600Y0086088D01*
X0077600Y0082112D01*
X0080412Y0079300D01*
X0084388Y0079300D01*
X0087200Y0082112D01*
X0087200Y0086088D01*
X0084388Y0088900D01*
X0084953Y0090158D02*
X0079847Y0090158D01*
X0078988Y0089300D02*
X0081800Y0092112D01*
X0081800Y0096088D01*
X0078988Y0098900D01*
X0075012Y0098900D01*
X0072200Y0096088D01*
X0072200Y0092112D01*
X0075012Y0089300D01*
X0078988Y0089300D01*
X0079273Y0087761D02*
X0074727Y0087761D01*
X0073588Y0088900D02*
X0069612Y0088900D01*
X0066800Y0086088D01*
X0066800Y0082112D01*
X0069612Y0079300D01*
X0073588Y0079300D01*
X0076400Y0082112D01*
X0076400Y0086088D01*
X0073588Y0088900D01*
X0074153Y0090158D02*
X0069047Y0090158D01*
X0068188Y0089300D02*
X0071000Y0092112D01*
X0071000Y0096088D01*
X0068188Y0098900D01*
X0064212Y0098900D01*
X0061400Y0096088D01*
X0061400Y0092112D01*
X0064212Y0089300D01*
X0068188Y0089300D01*
X0068473Y0087761D02*
X0063927Y0087761D01*
X0062788Y0088900D02*
X0058812Y0088900D01*
X0056000Y0086088D01*
X0056000Y0082112D01*
X0058812Y0079300D01*
X0062788Y0079300D01*
X0065600Y0082112D01*
X0065600Y0086088D01*
X0062788Y0088900D01*
X0063353Y0090158D02*
X0058247Y0090158D01*
X0059445Y0091357D02*
X0062155Y0091357D01*
X0061400Y0092555D02*
X0060200Y0092555D01*
X0060200Y0093754D02*
X0061400Y0093754D01*
X0061400Y0094952D02*
X0060200Y0094952D01*
X0060137Y0096151D02*
X0061463Y0096151D01*
X0062661Y0097349D02*
X0058939Y0097349D01*
X0057740Y0098548D02*
X0063860Y0098548D01*
X0068540Y0098548D02*
X0074660Y0098548D01*
X0073461Y0097349D02*
X0069739Y0097349D01*
X0070937Y0096151D02*
X0072263Y0096151D01*
X0072200Y0094952D02*
X0071000Y0094952D01*
X0071000Y0093754D02*
X0072200Y0093754D01*
X0072200Y0092555D02*
X0071000Y0092555D01*
X0070245Y0091357D02*
X0072955Y0091357D01*
X0075925Y0086563D02*
X0078075Y0086563D01*
X0077600Y0085364D02*
X0076400Y0085364D01*
X0076400Y0084166D02*
X0077600Y0084166D01*
X0077600Y0082967D02*
X0076400Y0082967D01*
X0076057Y0081769D02*
X0077943Y0081769D01*
X0079142Y0080570D02*
X0074858Y0080570D01*
X0073660Y0079372D02*
X0080340Y0079372D01*
X0084460Y0079372D02*
X0114150Y0079372D01*
X0112742Y0080570D02*
X0096176Y0080570D01*
X0095105Y0079500D02*
X0097800Y0082195D01*
X0097800Y0083700D01*
X0093600Y0083700D01*
X0093600Y0084500D01*
X0097800Y0084500D01*
X0097800Y0086005D01*
X0095105Y0088700D01*
X0093600Y0088700D01*
X0093600Y0084500D01*
X0092800Y0084500D01*
X0092800Y0083700D01*
X0093600Y0083700D01*
X0093600Y0079500D01*
X0095105Y0079500D01*
X0093600Y0080570D02*
X0092800Y0080570D01*
X0092800Y0079500D02*
X0091295Y0079500D01*
X0088600Y0082195D01*
X0088600Y0083700D01*
X0092800Y0083700D01*
X0092800Y0079500D01*
X0090224Y0080570D02*
X0085658Y0080570D01*
X0086857Y0081769D02*
X0089026Y0081769D01*
X0088600Y0082967D02*
X0087200Y0082967D01*
X0087200Y0084166D02*
X0092800Y0084166D01*
X0093600Y0084166D02*
X0110123Y0084166D01*
X0109685Y0085364D02*
X0097800Y0085364D01*
X0097243Y0086563D02*
X0109364Y0086563D01*
X0109100Y0087761D02*
X0096044Y0087761D01*
X0093600Y0087761D02*
X0092800Y0087761D01*
X0092800Y0086563D02*
X0093600Y0086563D01*
X0093600Y0085364D02*
X0092800Y0085364D01*
X0092800Y0082967D02*
X0093600Y0082967D01*
X0093600Y0081769D02*
X0092800Y0081769D01*
X0097374Y0081769D02*
X0111544Y0081769D01*
X0110815Y0082967D02*
X0097800Y0082967D01*
X0089157Y0086563D02*
X0086725Y0086563D01*
X0087200Y0085364D02*
X0088600Y0085364D01*
X0091845Y0091357D02*
X0109288Y0091357D01*
X0109610Y0092555D02*
X0092600Y0092555D01*
X0092600Y0093754D02*
X0109961Y0093754D01*
X0110653Y0094952D02*
X0092600Y0094952D01*
X0092537Y0096151D02*
X0111345Y0096151D01*
X0112462Y0097349D02*
X0091339Y0097349D01*
X0090140Y0098548D02*
X0113664Y0098548D01*
X0116226Y0078173D02*
X0057170Y0078173D01*
X0057291Y0079372D02*
X0058740Y0079372D01*
X0057542Y0080570D02*
X0056944Y0080570D01*
X0056343Y0081769D02*
X0055943Y0081769D01*
X0056000Y0082967D02*
X0054800Y0082967D01*
X0054800Y0084166D02*
X0056000Y0084166D01*
X0056000Y0085364D02*
X0054800Y0085364D01*
X0054325Y0086563D02*
X0056475Y0086563D01*
X0057673Y0087761D02*
X0053127Y0087761D01*
X0046873Y0087761D02*
X0034100Y0087761D01*
X0033836Y0086563D02*
X0045675Y0086563D01*
X0045200Y0085364D02*
X0033515Y0085364D01*
X0033077Y0084166D02*
X0045200Y0084166D01*
X0045200Y0082967D02*
X0032385Y0082967D01*
X0031656Y0081769D02*
X0045543Y0081769D01*
X0046742Y0080570D02*
X0030458Y0080570D01*
X0029050Y0079372D02*
X0047940Y0079372D01*
X0051030Y0078173D02*
X0026974Y0078173D01*
X0012053Y0094952D02*
X0011500Y0094952D01*
X0011500Y0096151D02*
X0012745Y0096151D01*
X0013862Y0097349D02*
X0011500Y0097349D01*
X0011500Y0098548D02*
X0015064Y0098548D01*
X0017140Y0099746D02*
X0011500Y0099746D01*
X0050497Y0076975D02*
X0051700Y0076975D01*
X0054100Y0079100D02*
X0054100Y0049100D01*
X0051676Y0047012D02*
X0051500Y0047012D01*
X0069100Y0059100D02*
X0071600Y0056600D01*
X0071600Y0024100D01*
X0076400Y0024240D02*
X0076800Y0024240D01*
X0076800Y0023042D02*
X0076400Y0023042D01*
X0076400Y0021843D02*
X0076800Y0021843D01*
X0076800Y0020645D02*
X0076400Y0020645D01*
X0076110Y0019446D02*
X0077090Y0019446D01*
X0077664Y0018248D02*
X0075536Y0018248D01*
X0074337Y0017049D02*
X0078863Y0017049D01*
X0084337Y0017049D02*
X0088863Y0017049D01*
X0088881Y0017031D02*
X0090645Y0016300D01*
X0092555Y0016300D01*
X0094319Y0017031D01*
X0095669Y0018381D01*
X0096400Y0020145D01*
X0096400Y0028055D01*
X0095669Y0029819D01*
X0094319Y0031169D01*
X0092555Y0031900D01*
X0090645Y0031900D01*
X0088881Y0031169D01*
X0087531Y0029819D01*
X0086800Y0028055D01*
X0086800Y0020145D01*
X0087531Y0018381D01*
X0088881Y0017031D01*
X0087664Y0018248D02*
X0085536Y0018248D01*
X0086110Y0019446D02*
X0087090Y0019446D01*
X0086800Y0020645D02*
X0086400Y0020645D01*
X0086400Y0021843D02*
X0086800Y0021843D01*
X0086800Y0023042D02*
X0086400Y0023042D01*
X0086400Y0024240D02*
X0086800Y0024240D01*
X0086800Y0025439D02*
X0086400Y0025439D01*
X0086400Y0026637D02*
X0086800Y0026637D01*
X0086800Y0027836D02*
X0086400Y0027836D01*
X0085994Y0029034D02*
X0087206Y0029034D01*
X0087945Y0030233D02*
X0085255Y0030233D01*
X0083686Y0031431D02*
X0089514Y0031431D01*
X0093686Y0031431D02*
X0131700Y0031431D01*
X0131700Y0030233D02*
X0124903Y0030233D01*
X0125155Y0030183D02*
X0121600Y0030890D01*
X0118045Y0030183D01*
X0115031Y0028169D01*
X0115031Y0028169D01*
X0115031Y0028169D01*
X0113017Y0025155D01*
X0112310Y0021600D01*
X0113017Y0018045D01*
X0115031Y0015031D01*
X0115031Y0015031D01*
X0118045Y0013017D01*
X0121600Y0012310D01*
X0125155Y0013017D01*
X0128169Y0015031D01*
X0130183Y0018045D01*
X0130890Y0021600D01*
X0130183Y0025155D01*
X0128169Y0028169D01*
X0128169Y0028169D01*
X0128169Y0028169D01*
X0125155Y0030183D01*
X0125155Y0030183D01*
X0126874Y0029034D02*
X0131700Y0029034D01*
X0131700Y0027836D02*
X0128391Y0027836D01*
X0129192Y0026637D02*
X0131700Y0026637D01*
X0131700Y0025439D02*
X0129993Y0025439D01*
X0130183Y0025155D02*
X0130183Y0025155D01*
X0130365Y0024240D02*
X0131700Y0024240D01*
X0131700Y0023042D02*
X0130603Y0023042D01*
X0130841Y0021843D02*
X0131700Y0021843D01*
X0131700Y0020645D02*
X0130700Y0020645D01*
X0130461Y0019446D02*
X0131700Y0019446D01*
X0131700Y0018248D02*
X0130223Y0018248D01*
X0130183Y0018045D02*
X0130183Y0018045D01*
X0129517Y0017049D02*
X0131700Y0017049D01*
X0131537Y0015851D02*
X0128716Y0015851D01*
X0128169Y0015031D02*
X0128169Y0015031D01*
X0127602Y0014652D02*
X0131147Y0014652D01*
X0130335Y0013454D02*
X0125808Y0013454D01*
X0128907Y0012255D02*
X0014293Y0012255D01*
X0021600Y0012310D02*
X0021600Y0012310D01*
X0025155Y0013017D02*
X0025155Y0013017D01*
X0025808Y0013454D02*
X0117392Y0013454D01*
X0118045Y0013017D02*
X0118045Y0013017D01*
X0115598Y0014652D02*
X0027602Y0014652D01*
X0028169Y0015031D02*
X0028169Y0015031D01*
X0028169Y0015031D01*
X0028716Y0015851D02*
X0114484Y0015851D01*
X0113683Y0017049D02*
X0094337Y0017049D01*
X0095536Y0018248D02*
X0112977Y0018248D01*
X0113017Y0018045D02*
X0113017Y0018045D01*
X0112739Y0019446D02*
X0096110Y0019446D01*
X0096400Y0020645D02*
X0112500Y0020645D01*
X0112310Y0021600D02*
X0112310Y0021600D01*
X0112359Y0021843D02*
X0096400Y0021843D01*
X0096400Y0023042D02*
X0112597Y0023042D01*
X0112835Y0024240D02*
X0096400Y0024240D01*
X0096400Y0025439D02*
X0113207Y0025439D01*
X0113017Y0025155D02*
X0113017Y0025155D01*
X0114008Y0026637D02*
X0096400Y0026637D01*
X0096400Y0027836D02*
X0114809Y0027836D01*
X0116326Y0029034D02*
X0095994Y0029034D01*
X0095255Y0030233D02*
X0118297Y0030233D01*
X0118045Y0030183D02*
X0118045Y0030183D01*
X0121600Y0030890D02*
X0121600Y0030890D01*
X0131700Y0032630D02*
X0080429Y0032630D01*
X0079230Y0033828D02*
X0131700Y0033828D01*
X0131700Y0035027D02*
X0078032Y0035027D01*
X0076833Y0036225D02*
X0131700Y0036225D01*
X0131700Y0037424D02*
X0076500Y0037424D01*
X0076500Y0038622D02*
X0131700Y0038622D01*
X0131700Y0039821D02*
X0076500Y0039821D01*
X0076500Y0041019D02*
X0131700Y0041019D01*
X0131700Y0042218D02*
X0076500Y0042218D01*
X0076500Y0043416D02*
X0131700Y0043416D01*
X0131700Y0044615D02*
X0076500Y0044615D01*
X0076500Y0045813D02*
X0131700Y0045813D01*
X0131700Y0047012D02*
X0076500Y0047012D01*
X0076500Y0048210D02*
X0131700Y0048210D01*
X0131700Y0049409D02*
X0076500Y0049409D01*
X0076500Y0050607D02*
X0131700Y0050607D01*
X0131700Y0051806D02*
X0076500Y0051806D01*
X0076500Y0053004D02*
X0131700Y0053004D01*
X0131700Y0054203D02*
X0076500Y0054203D01*
X0076500Y0055401D02*
X0131700Y0055401D01*
X0131700Y0056600D02*
X0076500Y0056600D01*
X0076500Y0057799D02*
X0131700Y0057799D01*
X0131700Y0058997D02*
X0076500Y0058997D01*
X0076244Y0060196D02*
X0131700Y0060196D01*
X0131700Y0061394D02*
X0075200Y0061394D01*
X0074002Y0062593D02*
X0131700Y0062593D01*
X0131700Y0063791D02*
X0072803Y0063791D01*
X0072185Y0064990D02*
X0131700Y0064990D01*
X0131700Y0066188D02*
X0071524Y0066188D01*
X0069100Y0064100D02*
X0074100Y0059100D01*
X0074100Y0035564D01*
X0078064Y0031600D01*
X0081600Y0028064D01*
X0081600Y0024100D01*
X0076800Y0025439D02*
X0076400Y0025439D01*
X0076400Y0026637D02*
X0076800Y0026637D01*
X0076800Y0027836D02*
X0076400Y0027836D01*
X0075994Y0029034D02*
X0077206Y0029034D01*
X0076038Y0030233D02*
X0075255Y0030233D01*
X0074839Y0031431D02*
X0074000Y0031431D01*
X0121600Y0012310D02*
X0121600Y0012310D01*
X0069540Y0079372D02*
X0062860Y0079372D01*
X0064058Y0080570D02*
X0068342Y0080570D01*
X0067143Y0081769D02*
X0065257Y0081769D01*
X0065600Y0082967D02*
X0066800Y0082967D01*
X0066800Y0084166D02*
X0065600Y0084166D01*
X0065600Y0085364D02*
X0066800Y0085364D01*
X0067275Y0086563D02*
X0065125Y0086563D01*
X0079340Y0098548D02*
X0085460Y0098548D01*
X0084261Y0097349D02*
X0080539Y0097349D01*
X0081737Y0096151D02*
X0083063Y0096151D01*
X0083000Y0094952D02*
X0081800Y0094952D01*
X0081800Y0093754D02*
X0083000Y0093754D01*
X0083000Y0092555D02*
X0081800Y0092555D01*
X0081045Y0091357D02*
X0083755Y0091357D01*
D14*
X0069100Y0064100D03*
X0069100Y0059100D03*
X0054100Y0049100D03*
X0049100Y0074100D03*
X0054100Y0079100D03*
M02*
