G75*
%MOIN*%
%OFA0B0*%
%FSLAX25Y25*%
%IPPOS*%
%LPD*%
%AMOC8*
5,1,8,0,0,1.08239X$1,22.5*
%
%ADD10R,0.07099X0.05918*%
%ADD11OC8,0.06800*%
%ADD12C,0.20800*%
%ADD13R,0.09461X0.03162*%
%ADD14C,0.06800*%
D10*
X0046600Y0040163D03*
X0046600Y0048037D03*
X0096600Y0048037D03*
X0096600Y0055163D03*
X0096600Y0063037D03*
X0106600Y0063037D03*
X0106600Y0055163D03*
X0106600Y0048037D03*
X0106600Y0040163D03*
X0096600Y0040163D03*
D11*
X0093200Y0084100D03*
X0087800Y0094100D03*
X0082400Y0084100D03*
X0071600Y0084100D03*
X0066200Y0094100D03*
X0077000Y0094100D03*
X0060800Y0084100D03*
X0055400Y0094100D03*
X0050000Y0084100D03*
D12*
X0022300Y0089100D03*
X0120900Y0089100D03*
D13*
X0081836Y0074100D03*
X0081836Y0069100D03*
X0081836Y0064100D03*
X0081836Y0059100D03*
X0081836Y0054100D03*
X0081836Y0049100D03*
X0081836Y0044100D03*
X0081836Y0039100D03*
X0061364Y0039100D03*
X0061364Y0044100D03*
X0061364Y0049100D03*
X0061364Y0054100D03*
X0061364Y0059100D03*
X0061364Y0064100D03*
X0061364Y0069100D03*
X0061364Y0074100D03*
D14*
X0061600Y0027100D02*
X0061600Y0021100D01*
X0051600Y0021100D02*
X0051600Y0027100D01*
X0071600Y0027100D02*
X0071600Y0021100D01*
X0081600Y0021100D02*
X0081600Y0027100D01*
X0091600Y0027100D02*
X0091600Y0021100D01*
M02*
